<?xml version="1.0" standalone="no"?>
<!DOCTYPE svg PUBLIC "-//W3C//DTD SVG 20010904//EN"
 "http://www.w3.org/TR/2001/REC-SVG-20010904/DTD/svg10.dtd">
<svg version="1.0" xmlns="http://www.w3.org/2000/svg"
 width="180.000000pt" height="180.000000pt" viewBox="0 0 180.000000 180.000000"
 preserveAspectRatio="xMidYMid meet">

<g transform="translate(0.000000,180.000000) scale(0.100000,-0.100000)"
fill="#000000" stroke="none">
<path d="M857 1780 c-30 -9 -135 -71 -202 -119 -22 -16 -154 -104 -292 -196
-313 -208 -288 -170 -328 -507 -28 -229 -28 -240 -12 -290 23 -73 55 -109 225
-246 81 -66 188 -152 237 -193 50 -40 125 -101 167 -135 81 -66 123 -84 199
-84 55 0 96 20 246 123 59 40 232 157 384 260 296 199 309 212 309 293 0 33
-52 230 -125 479 -13 44 -35 95 -49 113 -24 34 -500 423 -580 475 -47 31 -129
43 -179 27z m115 -79 c37 -15 561 -439 575 -466 7 -13 10 -31 7 -40 -4 -8 -88
-70 -188 -137 -99 -67 -244 -164 -320 -216 -165 -112 -234 -146 -275 -137 -37
8 -144 74 -268 166 -116 85 -319 284 -328 321 -13 50 -35 33 498 392 170 114
192 126 232 126 24 0 54 -4 67 -9z m-755 -630 c125 -141 449 -382 546 -405 15
-4 46 -2 69 4 38 11 681 433 735 483 13 11 24 19 26 16 13 -16 127 -447 127
-479 0 -59 -29 -85 -300 -266 -559 -375 -498 -338 -566 -342 -70 -5 -111 12
-184 75 -25 21 -92 76 -150 123 -342 274 -384 312 -414 372 -31 63 -32 93 -7
281 11 78 23 168 27 200 l6 57 17 -30 c9 -16 40 -57 68 -89z"/>
<path d="M790 1443 c-47 -31 -92 -78 -112 -117 -16 -31 -19 -53 -16 -107 4
-80 36 -134 107 -184 37 -26 51 -30 109 -30 59 0 72 4 113 32 26 18 61 51 78
75 l31 42 -23 30 c-28 36 -47 44 -47 20 0 -10 -20 -37 -45 -61 -38 -36 -52
-43 -86 -43 -80 0 -149 69 -149 149 0 33 7 49 35 80 19 21 49 44 65 51 l29 12
-26 34 c-29 39 -30 39 -63 17z"/>
</g>
</svg>
